<svg version="1.1" id="Layer_1" xmlns="http://www.w3.org/2000/svg" xmlns:xlink="http://www.w3.org/1999/xlink" x="0px" y="0px"
	 width="100%" viewBox="0 0 225 225" enable-background="new 0 0 225 225" xml:space="preserve">
<path fill="#FEFFFE" opacity="1.000000" stroke="none" 
	d="
M138.000000,226.000000 
	C128.645767,226.000000 119.291542,226.000000 109.388321,225.795120 
	C108.687607,225.326447 108.473015,225.132095 108.127945,224.542480 
	C107.991806,213.719955 107.923256,203.362122 107.929977,192.540558 
	C108.062546,173.721878 108.119835,155.366928 108.525635,136.956818 
	C109.473572,135.449768 110.466209,133.999573 110.472511,132.545105 
	C110.474922,131.989212 108.219894,131.423538 106.625748,130.922699 
	C105.516319,131.039032 104.774750,131.095016 103.596359,131.077103 
	C101.096443,131.052444 99.033348,131.101700 96.512344,131.086014 
	C92.021446,131.057526 87.988457,131.093979 84.044380,131.071259 
	C84.133293,131.012054 84.091774,130.802505 84.070251,130.372437 
	C83.782722,126.959915 83.516708,123.977440 83.201035,120.553139 
	C83.080811,117.740112 83.010246,115.368912 83.022072,112.565689 
	C83.048546,110.085930 82.992622,108.038185 83.028397,105.750740 
	C83.170502,105.347527 83.220917,105.184029 83.417671,104.896118 
	C83.390572,104.508659 83.217133,104.245613 83.024109,103.993973 
	C83.004517,104.005379 83.021011,103.963264 83.032089,103.729820 
	C83.043175,103.496376 83.015289,103.029793 83.149956,102.748596 
	C83.875412,102.281853 84.466209,102.096306 85.283676,102.008438 
	C85.510361,102.106117 85.986191,102.240746 86.196381,102.449020 
	C87.286995,102.490089 88.167427,102.322884 89.064865,102.068825 
	C89.081879,101.981979 88.955254,101.858299 89.420952,101.923103 
	C94.921585,102.046562 99.956512,102.105209 105.074127,102.518555 
	C107.541664,103.408455 111.118019,105.157654 112.065186,104.228035 
	C114.083763,102.246849 113.542007,99.209488 110.900406,97.018654 
	C110.201752,96.439209 110.046066,94.921524 110.045418,93.834427 
	C110.042969,89.723351 110.329803,85.608536 110.208092,81.504021 
	C110.182716,80.648354 108.876732,79.830658 108.091866,78.551590 
	C108.075439,75.421852 108.128052,72.735985 108.423141,69.973557 
	C108.735435,69.595039 108.805237,69.293091 108.941269,68.679855 
	C109.043182,67.945892 109.078865,67.523193 109.063538,67.062836 
	C109.012527,67.025162 109.083801,67.130066 109.472977,67.066696 
	C111.275848,63.681000 112.689537,60.358669 114.400391,56.871910 
	C119.142494,53.209984 123.587418,49.712479 128.228912,46.510887 
	C131.284744,46.711632 134.149551,46.455734 137.002121,46.554432 
	C143.124329,46.766251 149.240189,47.160980 155.631561,47.495090 
	C155.756973,46.384060 155.882141,45.275105 156.341202,44.099232 
	C157.124832,44.076286 157.574585,44.120262 158.263748,44.401657 
	C161.274490,46.092743 164.045807,47.546406 166.895508,49.461872 
	C166.913651,55.291706 166.853394,60.659733 166.563904,66.266190 
	C165.480286,67.138229 164.702103,68.146751 163.757858,68.338791 
	C160.191071,69.064194 156.570343,69.524414 152.555695,70.032684 
	C143.928284,70.282898 140.034836,72.944984 138.909332,79.435486 
	C138.655304,82.898445 138.409760,85.948959 138.096664,89.452934 
	C138.350632,93.942467 138.672134,97.978554 138.978210,102.257980 
	C138.962769,102.501335 138.985504,102.988472 138.842255,103.040688 
	C138.802628,103.066124 138.906235,103.039345 139.425323,103.059906 
	C141.621368,103.404327 143.410645,103.997337 145.180908,103.945114 
	C151.451141,103.760178 157.714859,103.354774 163.920425,103.394119 
	C161.537491,107.110413 160.480865,110.335144 164.889862,113.369766 
	C165.027878,114.476501 165.088684,115.218239 165.076630,116.359962 
	C164.329666,119.914520 163.113037,123.069427 163.114990,126.223587 
	C163.117584,130.426682 161.057602,131.843857 157.461105,131.972092 
	C152.977615,132.131927 148.487762,132.113083 143.630432,132.102921 
	C141.846634,132.380524 140.433044,132.726593 138.831909,132.805725 
	C138.418396,134.024490 138.192459,135.510223 137.910614,137.462097 
	C137.919006,145.619766 137.983322,153.311310 137.955887,161.463654 
	C137.909439,183.282974 137.954727,204.641495 138.000000,226.000000 
M85.000183,110.695992 
	C85.000183,113.791801 85.000183,116.887619 85.000183,119.983429 
	C85.319168,119.991623 85.638145,119.999809 85.957130,120.008003 
	C86.213379,115.059692 86.469635,110.111382 86.725891,105.163078 
	C86.150688,105.137947 85.575485,105.112816 85.000282,105.087685 
	C85.000282,106.659523 85.000282,108.231361 85.000183,110.695992 
M111.482620,130.590088 
	C111.482620,130.590088 111.416100,130.478546 111.482620,130.590088 
M85.588577,128.516327 
	C85.588577,128.516327 85.476814,128.583344 85.588577,128.516327 
z"/>
<path fill="#0777E9" opacity="1.000000" stroke="none" 
	d="
M1.000000,135.000000 
	C1.000000,122.645775 1.000000,110.291542 1.430295,97.468658 
	C5.465641,97.036972 8.807028,96.422958 10.414865,101.562103 
	C11.279856,104.326874 16.175076,105.648712 17.643187,108.461288 
	C18.944359,110.954048 19.965738,111.791061 22.579638,112.115387 
	C26.086674,112.550514 30.902090,112.615387 32.606171,114.814728 
	C34.705875,117.524620 36.227962,120.097633 39.639477,121.325150 
	C40.640717,121.685410 41.694641,123.291397 41.820511,124.426666 
	C42.173111,127.606842 44.119308,127.811279 46.673725,128.106796 
	C50.045300,128.496857 54.772064,128.430847 56.336670,130.505936 
	C58.603165,133.511871 60.652580,136.070160 64.057716,137.724121 
	C65.012077,138.187683 65.200287,140.026016 66.036110,140.972061 
	C69.274338,144.637222 72.625183,148.203247 75.964104,151.778137 
	C76.144608,151.971405 76.596451,151.923187 76.924866,151.964478 
	C79.706696,152.314362 82.528709,152.478729 85.255737,153.076859 
	C86.742821,153.403030 89.022423,154.213058 89.289612,155.236801 
	C90.096199,158.327286 91.472267,160.111801 94.750908,160.590118 
	C95.682144,160.725983 97.071297,162.034103 97.162971,162.917465 
	C97.780708,168.870209 102.053947,168.081253 106.003387,168.469193 
	C106.002617,176.957169 106.001724,184.976562 105.800346,193.272964 
	C104.092979,195.332367 102.586090,197.114746 101.041794,198.941376 
	C95.624992,192.349457 95.609795,192.440002 86.282356,190.874069 
	C85.025879,190.663132 83.964355,189.050308 82.895973,188.001633 
	C78.526604,183.712952 74.190804,179.390060 69.833336,175.089203 
	C69.730560,174.987762 69.481384,175.042755 69.363579,174.947113 
	C68.622963,174.345810 67.446426,173.840927 67.249367,173.086090 
	C66.344940,169.621811 63.900005,169.354996 60.853119,168.843582 
	C56.552528,168.121704 52.258808,167.575974 49.757168,162.297760 
	C48.005135,158.601151 43.538235,156.149658 40.142178,153.311584 
	C39.518372,152.790283 38.178856,153.221527 37.232197,152.974045 
	C32.800484,151.815475 27.558496,152.099014 25.891069,146.098984 
	C25.575005,144.961685 23.704361,144.279739 22.598288,143.332489 
	C21.319071,142.236969 20.075598,141.097992 18.847864,139.944611 
	C17.906750,139.060501 17.131668,137.519226 16.079966,137.315125 
	C11.091425,136.347015 6.033326,135.737335 1.000000,135.000000 
z"/>
<path fill="#0C89F0" opacity="1.000000" stroke="none" 
	d="
M1.000000,32.000000 
	C1.000000,21.764977 1.000000,11.529954 1.000000,1.000000 
	C6.015390,1.000000 11.036497,1.000000 16.528759,1.432386 
	C16.596802,5.811311 16.879314,9.271459 21.956421,9.948709 
	C22.716364,10.050080 23.852247,11.042779 23.957876,11.750888 
	C24.778929,17.254883 28.605515,17.062681 32.831615,17.141874 
	C35.220394,17.186636 38.925110,18.025480 39.675034,19.618559 
	C41.202381,22.863146 42.611881,25.271637 46.324554,26.111385 
	C47.231861,26.316605 48.211761,27.945602 48.443008,29.067430 
	C49.132717,32.413269 51.161118,33.136890 54.239532,33.067554 
	C57.177139,33.001392 62.033772,32.542740 62.721115,33.918350 
	C64.945511,38.370140 69.814072,40.489532 71.684784,44.139389 
	C73.992874,48.642601 76.531281,49.104633 80.534676,49.038651 
	C88.250816,48.911461 88.252357,49.004974 89.452637,56.006493 
	C91.707458,57.197044 95.392105,58.021057 95.661346,59.476776 
	C96.897186,66.158569 101.628326,64.976654 105.999863,65.444183 
	C105.999245,68.259064 105.998756,70.629768 105.710045,73.278656 
	C105.753876,76.197670 106.214951,78.829933 106.391220,81.481117 
	C106.761108,87.044640 108.851463,92.777863 104.559372,97.996452 
	C101.861412,97.998062 99.611389,97.998062 97.478989,97.998062 
	C96.523445,90.183960 96.526749,90.168327 89.380013,88.657639 
	C87.930885,88.351318 86.331078,88.484024 85.009201,87.923088 
	C83.557297,87.306961 82.155586,86.303810 81.065186,85.153473 
	C77.368324,81.253387 73.843742,77.190323 70.173820,73.263847 
	C69.811104,72.875786 68.810638,73.158310 68.269157,72.846527 
	C67.292503,72.284172 65.773109,71.613808 65.643906,70.803123 
	C64.883850,66.034050 61.493294,66.314369 57.891354,65.789841 
	C54.884144,65.351913 50.895496,64.171722 49.523521,61.964153 
	C47.964024,59.454853 47.250877,57.177673 43.901249,56.685795 
	C42.883324,56.536320 41.441238,55.050426 41.286297,54.013344 
	C40.745136,50.391212 38.279415,50.368355 35.505718,49.914753 
	C31.105732,49.195190 25.332449,50.425289 24.489996,43.389698 
	C24.399628,42.635014 23.234821,41.568054 22.425785,41.418709 
	C19.356607,40.852154 17.153568,39.696514 16.706152,36.211742 
	C16.616684,35.514893 15.395079,34.593727 14.563026,34.423496 
	C10.065014,33.503262 5.525323,32.786743 1.000000,32.000000 
z"/>
<path fill="#097CEB" opacity="1.000000" stroke="none" 
	d="
M106.003273,168.000610 
	C102.053947,168.081253 97.780708,168.870209 97.162971,162.917465 
	C97.071297,162.034103 95.682144,160.725983 94.750908,160.590118 
	C91.472267,160.111801 90.096199,158.327286 89.289612,155.236801 
	C89.022423,154.213058 86.742821,153.403030 85.255737,153.076859 
	C82.528709,152.478729 79.706696,152.314362 76.924866,151.964478 
	C76.596451,151.923187 76.144608,151.971405 75.964104,151.778137 
	C72.625183,148.203247 69.274338,144.637222 66.036110,140.972061 
	C65.200287,140.026016 65.012077,138.187683 64.057716,137.724121 
	C60.652580,136.070160 58.603165,133.511871 56.336670,130.505936 
	C54.772064,128.430847 50.045300,128.496857 46.673725,128.106796 
	C44.119308,127.811279 42.173111,127.606842 41.820511,124.426666 
	C41.694641,123.291397 40.640717,121.685410 39.639477,121.325150 
	C36.227962,120.097633 34.705875,117.524620 32.606171,114.814728 
	C30.902090,112.615387 26.086674,112.550514 22.579638,112.115387 
	C19.965738,111.791061 18.944359,110.954048 17.643187,108.461288 
	C16.175076,105.648712 11.279856,104.326874 10.414865,101.562103 
	C8.807028,96.422958 5.465641,97.036972 1.430295,97.000000 
	C1.000000,86.645775 1.000000,76.291542 1.430303,65.468658 
	C5.768492,64.877602 8.213215,65.417366 10.738185,69.824791 
	C12.672626,73.201416 17.919432,75.290375 19.997194,79.742058 
	C20.173368,80.119514 21.561422,79.902985 22.379402,80.014359 
	C25.315565,80.414177 29.331440,79.790565 30.954300,81.470856 
	C34.188469,84.819473 39.591240,87.485985 40.741447,90.817032 
	C42.958042,97.236427 47.667694,95.694473 51.612598,96.949127 
	C52.682484,97.289391 54.525391,96.678360 54.966595,97.276360 
	C57.858025,101.195312 63.511490,103.523521 64.944901,107.159973 
	C67.190643,112.857254 71.154892,112.177879 74.987541,112.902542 
	C77.552551,113.387527 80.283173,112.996658 82.939682,112.997711 
	C83.010246,115.368912 83.080811,117.740112 83.103867,120.981903 
	C82.797974,124.383904 82.449272,126.912422 82.368446,129.449478 
	C82.354675,129.881744 83.488251,130.350571 84.091774,130.802505 
	C84.091774,130.802505 84.133293,131.012054 84.057533,131.287155 
	C83.981773,131.562256 83.991859,131.994751 83.756897,132.165390 
	C83.427841,132.929153 83.333748,133.522278 83.239655,134.115387 
	C83.445892,134.139435 83.652122,134.163483 83.858353,134.187515 
	C83.908638,133.461395 83.958916,132.735260 84.383774,132.008270 
	C85.507690,132.010254 86.257042,132.013107 87.119278,132.311783 
	C88.337540,133.404922 89.411835,134.834747 90.553612,134.890823 
	C95.693764,135.143250 100.853043,135.005997 106.004456,135.476837 
	C106.003418,146.629837 106.003349,157.315216 106.003273,168.000610 
z"/>
<path fill="#0A84EE" opacity="1.000000" stroke="none" 
	d="
M83.022072,112.565689 
	C80.283173,112.996658 77.552551,113.387527 74.987541,112.902542 
	C71.154892,112.177879 67.190643,112.857254 64.944901,107.159973 
	C63.511490,103.523521 57.858025,101.195312 54.966595,97.276360 
	C54.525391,96.678360 52.682484,97.289391 51.612598,96.949127 
	C47.667694,95.694473 42.958042,97.236427 40.741447,90.817032 
	C39.591240,87.485985 34.188469,84.819473 30.954300,81.470856 
	C29.331440,79.790565 25.315565,80.414177 22.379402,80.014359 
	C21.561422,79.902985 20.173368,80.119514 19.997194,79.742058 
	C17.919432,75.290375 12.672626,73.201416 10.738185,69.824791 
	C8.213215,65.417366 5.768492,64.877602 1.430303,65.000000 
	C1.000000,54.312439 1.000000,43.624878 1.000000,32.468658 
	C5.525323,32.786743 10.065014,33.503262 14.563026,34.423496 
	C15.395079,34.593727 16.616684,35.514893 16.706152,36.211742 
	C17.153568,39.696514 19.356607,40.852154 22.425785,41.418709 
	C23.234821,41.568054 24.399628,42.635014 24.489996,43.389698 
	C25.332449,50.425289 31.105732,49.195190 35.505718,49.914753 
	C38.279415,50.368355 40.745136,50.391212 41.286297,54.013344 
	C41.441238,55.050426 42.883324,56.536320 43.901249,56.685795 
	C47.250877,57.177673 47.964024,59.454853 49.523521,61.964153 
	C50.895496,64.171722 54.884144,65.351913 57.891354,65.789841 
	C61.493294,66.314369 64.883850,66.034050 65.643906,70.803123 
	C65.773109,71.613808 67.292503,72.284172 68.269157,72.846527 
	C68.810638,73.158310 69.811104,72.875786 70.173820,73.263847 
	C73.843742,77.190323 77.368324,81.253387 81.065186,85.153473 
	C82.155586,86.303810 83.557297,87.306961 85.009201,87.923088 
	C86.331078,88.484024 87.930885,88.351318 89.380013,88.657639 
	C96.526749,90.168327 96.523445,90.183960 97.478989,97.998062 
	C99.611389,97.998062 101.861412,97.998062 104.555901,97.998978 
	C105.000366,97.999886 105.003967,98.002190 105.002838,98.334839 
	C105.004082,99.111046 105.006470,99.554604 104.714645,100.294472 
	C99.276268,100.729294 94.132095,100.867813 88.631149,101.003662 
	C87.201927,101.304245 86.129463,101.607506 85.056999,101.910767 
	C84.466209,102.096306 83.875412,102.281853 82.909744,102.776947 
	C82.205208,103.245125 82.047852,103.507172 82.061668,104.178726 
	C82.352608,104.986687 82.644653,105.488564 82.936707,105.990448 
	C82.992622,108.038185 83.048546,110.085930 83.022072,112.565689 
z"/>
<path fill="#139CF7" opacity="1.000000" stroke="none" 
	d="
M226.000000,42.000000 
	C226.000000,52.354229 226.000000,62.708454 225.578644,73.521561 
	C223.705887,73.660561 222.266464,73.145737 220.800949,73.055832 
	C215.516800,72.731689 208.857147,75.012207 208.374329,66.119919 
	C202.863434,65.941383 201.359100,61.497047 198.695801,57.852253 
	C197.679993,56.462086 193.723022,57.035408 191.107758,57.045746 
	C187.700562,57.059204 185.431534,56.275486 184.808670,52.312355 
	C184.608688,51.039944 182.327301,50.095867 181.000290,48.999012 
	C179.672989,47.901909 178.190277,46.940968 177.065094,45.665112 
	C175.837845,44.273495 175.137939,41.482410 173.863403,41.257809 
	C171.048248,40.761700 167.328720,39.695213 165.637390,44.035088 
	C164.865036,43.944157 164.425156,43.885254 163.923676,43.497406 
	C162.909882,42.776054 161.957687,42.383648 161.003693,41.549206 
	C160.203125,38.219910 163.266083,33.407581 157.351837,33.084789 
	C154.168671,32.911057 153.121078,31.712982 152.809433,28.609259 
	C152.678436,27.304737 150.660202,25.376604 149.292572,25.180895 
	C146.557983,24.789570 145.391800,24.005917 144.758102,21.111282 
	C144.403778,19.492849 142.012497,17.977133 140.204025,17.132666 
	C138.842773,16.497023 136.944855,16.928307 135.292664,17.015030 
	C131.679962,17.204660 129.137039,16.291790 128.866531,12.013944 
	C128.803238,11.012866 127.410362,9.220488 126.734947,9.268852 
	C119.953903,9.754420 120.996674,5.056983 121.000000,1.000000 
	C136.354233,1.000000 151.708450,1.000000 167.531342,1.453263 
	C168.000000,4.482996 168.000000,7.059466 168.000000,9.496840 
	C173.747391,10.297027 173.747375,10.297031 176.400940,15.596758 
	C178.810867,20.409861 180.618439,21.072199 185.318649,18.864412 
	C189.042175,17.115389 191.292358,18.342686 191.994904,22.490604 
	C192.179031,23.577618 192.411758,24.656391 192.640320,25.832348 
	C196.708344,25.771908 199.285309,26.607714 200.427826,31.159807 
	C201.724457,36.325958 204.613312,37.034653 209.387314,34.832424 
	C212.941650,33.192825 215.223450,34.300457 215.964783,38.070316 
	C216.182114,39.175499 216.260208,40.308067 216.474594,42.000000 
	C219.755508,42.000000 222.877747,42.000000 226.000000,42.000000 
z"/>
<path fill="#0F8FF2" opacity="1.000000" stroke="none" 
	d="
M138.917816,79.023048 
	C140.034836,72.944984 143.928284,70.282898 152.784760,70.384003 
	C155.701859,70.855110 158.354462,71.690475 160.155365,70.801147 
	C162.486237,69.650108 166.964828,72.014343 167.484192,67.084244 
	C168.151825,67.828232 168.819351,68.545944 168.737961,69.165199 
	C167.428329,79.127304 168.667892,80.613075 178.538116,82.109436 
	C180.464386,82.401474 182.265900,84.098190 183.927277,85.399422 
	C185.749969,86.826996 187.439972,88.457504 189.017471,90.157608 
	C192.290451,93.685020 195.150299,97.688812 200.226883,98.927704 
	C200.529785,99.001633 200.834793,99.763489 200.848358,100.213974 
	C200.940613,103.275703 202.837265,103.717728 205.448807,104.187950 
	C208.816528,104.794319 214.223740,105.519958 214.900620,107.506630 
	C217.043549,113.796265 221.384293,113.118904 226.000000,113.000000 
	C226.000000,124.020897 226.000000,135.041794 225.586060,146.478638 
	C221.729050,146.596252 218.289185,146.110092 214.842056,146.051636 
	C211.283783,145.991302 208.809753,145.051651 207.890472,141.150223 
	C207.602432,139.927872 205.954086,138.992691 204.861832,137.999237 
	C200.945969,134.437592 196.995605,130.913864 193.086151,127.345261 
	C192.895950,127.171631 192.978180,126.706932 192.920013,126.380180 
	C192.147385,122.039749 189.785248,120.972054 185.449799,121.795631 
	C181.130127,122.616219 176.543335,122.593597 175.783310,116.293129 
	C175.684921,115.477440 174.407425,114.493271 173.470016,114.150108 
	C171.048630,113.263672 168.511902,112.692314 166.016418,111.745514 
	C166.011581,111.495911 166.009384,110.996506 166.325409,110.952255 
	C166.474792,108.614433 166.308136,106.320869 166.054382,103.773788 
	C165.897079,103.355942 165.826889,103.191605 165.811005,102.716263 
	C165.869431,101.984291 165.873535,101.563316 166.135590,100.960831 
	C166.903793,99.828026 167.414032,98.876740 167.924286,97.925446 
	C167.351440,97.813850 166.778595,97.702248 166.205750,97.590652 
	C166.098068,98.770912 165.990387,99.951172 165.454376,101.094765 
	C158.010086,101.318199 150.994125,101.578308 143.844879,101.643967 
	C143.480133,101.217377 143.201553,101.082321 142.529480,101.031387 
	C141.119919,101.350479 140.056763,101.682556 138.993622,102.014633 
	C138.672134,97.978554 138.350632,93.942467 138.462158,89.358109 
	C139.543594,86.721817 140.192017,84.633820 140.840439,82.545815 
	C141.293991,82.606972 141.747528,82.668121 142.201080,82.729279 
	C141.887177,87.198303 141.494324,91.664391 141.327454,96.138901 
	C141.294952,97.010414 142.141174,97.914688 142.996628,99.639816 
	C142.996628,93.552933 143.045822,88.972824 142.978058,84.394440 
	C142.937836,81.677689 142.831894,78.873566 138.917816,79.023048 
z"/>
<path fill="#0F8FF2" opacity="1.000000" stroke="none" 
	d="
M105.998276,73.000465 
	C105.998756,70.629768 105.999245,68.259064 106.138664,65.390305 
	C106.185066,64.928162 106.092537,64.964081 106.000000,65.000000 
	C101.628326,64.976654 96.897186,66.158569 95.661346,59.476776 
	C95.392105,58.021057 91.707458,57.197044 89.452637,56.006493 
	C88.252357,49.004974 88.250816,48.911461 80.534676,49.038651 
	C76.531281,49.104633 73.992874,48.642601 71.684784,44.139389 
	C69.814072,40.489532 64.945511,38.370140 62.721115,33.918350 
	C62.033772,32.542740 57.177139,33.001392 54.239532,33.067554 
	C51.161118,33.136890 49.132717,32.413269 48.443008,29.067430 
	C48.211761,27.945602 47.231861,26.316605 46.324554,26.111385 
	C42.611881,25.271637 41.202381,22.863146 39.675034,19.618559 
	C38.925110,18.025480 35.220394,17.186636 32.831615,17.141874 
	C28.605515,17.062681 24.778929,17.254883 23.957876,11.750888 
	C23.852247,11.042779 22.716364,10.050080 21.956421,9.948709 
	C16.879314,9.271459 16.596802,5.811311 16.999956,1.432386 
	C32.687561,1.000000 48.375122,1.000000 64.531342,1.437310 
	C64.392960,6.517159 65.439186,9.499314 71.108208,9.310061 
	C73.585793,9.227351 77.296593,9.728517 78.368019,11.343789 
	C80.699432,14.858631 84.065941,16.858921 86.720512,19.574932 
	C89.313644,22.228083 90.947701,25.202579 95.015289,25.785488 
	C95.712814,25.885448 96.702133,27.201111 96.751305,28.004473 
	C96.952560,31.292952 99.019424,31.565359 101.676399,32.269806 
	C105.264488,33.221115 109.645660,34.471550 111.660614,37.129471 
	C113.629021,39.726006 115.080269,40.987648 118.175140,41.082787 
	C119.872780,41.134972 121.560005,41.983616 123.224243,42.553917 
	C125.540031,43.347492 127.829872,44.216805 129.974106,45.330109 
	C129.222382,45.809334 128.627365,46.012154 128.032349,46.214973 
	C123.587418,49.712479 119.142494,53.209984 114.087616,56.980850 
	C112.449356,58.141323 111.421043,59.028435 110.398682,59.910416 
	C110.067635,59.455307 109.536148,58.724632 108.948532,57.856491 
	C108.806053,57.670376 108.719696,57.621727 108.633347,57.573082 
	C108.753532,57.716972 108.873718,57.860863 108.994774,58.398006 
	C109.025032,61.570862 109.054420,64.350464 109.083801,67.130066 
	C109.083801,67.130066 109.012527,67.025162 108.791718,66.950790 
	C108.086914,67.011093 107.602905,67.145775 107.118904,67.280457 
	C107.704285,67.850685 108.289665,68.420914 108.875046,68.991135 
	C108.805237,69.293091 108.735435,69.595039 108.140823,70.121979 
	C107.076767,71.231461 106.537521,72.115959 105.998276,73.000465 
z"/>
<path fill="#0A83ED" opacity="1.000000" stroke="none" 
	d="
M226.000000,182.000000 
	C226.000000,193.020889 226.000000,204.041794 225.593216,215.531281 
	C222.886551,214.815155 219.658356,214.189926 218.521744,212.304077 
	C217.100372,209.945770 215.792953,209.335999 213.281937,208.864990 
	C208.730820,208.011307 203.061249,208.700348 201.387939,202.233749 
	C201.140625,201.278015 199.341309,200.774673 198.356903,199.946838 
	C196.910278,198.730255 195.596008,197.355484 194.141098,196.149750 
	C192.790192,195.030212 191.311615,194.066208 189.920578,192.993134 
	C188.273132,191.722229 185.524277,190.600266 185.265274,189.072586 
	C184.713104,185.815643 183.259979,185.237244 180.365341,184.873734 
	C175.781906,184.298096 171.396698,183.959625 168.946182,178.140579 
	C167.608475,174.964035 161.992905,173.802765 160.522018,169.428833 
	C160.458710,169.240601 159.936447,169.156372 159.615845,169.112503 
	C154.411514,168.400452 149.205231,167.702774 143.999023,166.597473 
	C143.665756,164.463501 143.332886,162.733887 142.999115,161.002441 
	C142.998245,161.000610 142.989624,161.003662 142.992462,160.534607 
	C142.995514,153.810135 142.873245,147.550522 143.087128,141.302429 
	C143.136917,139.847305 144.329803,138.431320 145.463043,136.998138 
	C150.619156,136.999710 155.308975,137.000473 159.999161,137.421570 
	C160.114227,143.875580 160.775574,144.464478 166.824097,145.035080 
	C171.106277,145.439041 175.506546,145.716858 176.825928,151.273270 
	C177.082870,152.355316 178.981201,153.069733 180.157104,153.904907 
	C181.209747,154.652557 182.985611,155.127594 183.274490,156.077927 
	C184.640625,160.572311 187.987183,160.802994 191.845673,161.141449 
	C195.513962,161.463226 198.594391,162.405655 200.793823,166.732529 
	C202.977768,171.028915 207.680969,174.074280 211.411987,177.524841 
	C212.016052,178.083481 213.348679,177.775574 214.277679,178.075378 
	C218.198898,179.340866 222.094818,180.684784 226.000000,182.000000 
z"/>
<path fill="#036BE4" opacity="1.000000" stroke="none" 
	d="
M89.000000,226.000000 
	C72.979103,226.000000 56.958210,226.000000 40.425804,225.621277 
	C39.160351,222.042297 38.424168,218.980759 34.548157,217.857895 
	C33.318333,217.501648 31.847813,215.953171 31.568607,214.707870 
	C30.632660,210.533447 27.575066,211.310989 24.647303,210.884262 
	C21.921141,210.486908 19.019434,209.587921 16.770819,208.061508 
	C14.091742,206.242905 12.014043,203.532471 9.701276,201.183334 
	C8.893267,200.362656 7.679948,199.566437 7.478750,198.588837 
	C6.679062,194.703262 3.880996,194.872955 1.000000,195.000000 
	C1.000000,184.312439 1.000000,173.624878 1.417280,162.468658 
	C5.347458,161.580856 7.065569,163.091614 9.240647,166.144379 
	C11.978469,169.986938 17.123009,171.980179 19.481274,176.602798 
	C19.662825,176.958679 20.719765,176.879181 21.373095,176.981064 
	C23.328829,177.286057 25.394768,177.278351 27.222883,177.935028 
	C33.093639,180.043854 36.274567,185.528442 40.899609,189.221024 
	C42.504555,190.502411 43.971813,192.250977 45.811115,192.875198 
	C48.584927,193.816559 53.758945,193.260696 54.185474,194.562469 
	C55.884502,199.747910 61.488369,200.817032 63.533722,204.217484 
	C66.569191,209.264023 70.175613,209.991989 74.858788,209.961563 
	C77.880112,209.941956 80.015976,210.333389 80.179039,214.152100 
	C80.233078,215.417496 81.967552,217.623383 83.006195,217.666840 
	C88.837700,217.910767 89.092384,221.740311 89.000000,226.000000 
z"/>
<path fill="#1095F5" opacity="1.000000" stroke="none" 
	d="
M130.130814,45.053703 
	C127.829872,44.216805 125.540031,43.347492 123.224243,42.553917 
	C121.560005,41.983616 119.872780,41.134972 118.175140,41.082787 
	C115.080269,40.987648 113.629021,39.726006 111.660614,37.129471 
	C109.645660,34.471550 105.264488,33.221115 101.676399,32.269806 
	C99.019424,31.565359 96.952560,31.292952 96.751305,28.004473 
	C96.702133,27.201111 95.712814,25.885448 95.015289,25.785488 
	C90.947701,25.202579 89.313644,22.228083 86.720512,19.574932 
	C84.065941,16.858921 80.699432,14.858631 78.368019,11.343789 
	C77.296593,9.728517 73.585793,9.227351 71.108208,9.310061 
	C65.439186,9.499314 64.392960,6.517159 65.000000,1.437310 
	C83.354225,1.000000 101.708458,1.000000 120.531342,1.000000 
	C120.996674,5.056983 119.953903,9.754420 126.734947,9.268852 
	C127.410362,9.220488 128.803238,11.012866 128.866531,12.013944 
	C129.137039,16.291790 131.679962,17.204660 135.292664,17.015030 
	C136.944855,16.928307 138.842773,16.497023 140.204025,17.132666 
	C142.012497,17.977133 144.403778,19.492849 144.758102,21.111282 
	C145.391800,24.005917 146.557983,24.789570 149.292572,25.180895 
	C150.660202,25.376604 152.678436,27.304737 152.809433,28.609259 
	C153.121078,31.712982 154.168671,32.911057 157.351837,33.084789 
	C163.266083,33.407581 160.203125,38.219910 160.534424,41.552780 
	C150.754059,41.998390 141.441177,41.998390 131.667847,41.998390 
	C132.716064,42.926651 133.380981,43.515465 133.870132,44.418747 
	C132.506531,44.840042 131.318665,44.946873 130.130814,45.053703 
z"/>
<path fill="#1095F5" opacity="1.000000" stroke="none" 
	d="
M226.000000,112.531342 
	C221.384293,113.118904 217.043549,113.796265 214.900620,107.506630 
	C214.223740,105.519958 208.816528,104.794319 205.448807,104.187950 
	C202.837265,103.717728 200.940613,103.275703 200.848358,100.213974 
	C200.834793,99.763489 200.529785,99.001633 200.226883,98.927704 
	C195.150299,97.688812 192.290451,93.685020 189.017471,90.157608 
	C187.439972,88.457504 185.749969,86.826996 183.927277,85.399422 
	C182.265900,84.098190 180.464386,82.401474 178.538116,82.109436 
	C168.667892,80.613075 167.428329,79.127304 168.737961,69.165199 
	C168.819351,68.545944 168.151825,67.828232 167.402664,66.836647 
	C166.912766,66.353897 166.852951,66.190826 166.793121,66.027763 
	C166.853394,60.659733 166.913651,55.291706 166.953400,49.094116 
	C166.611893,46.865410 166.290878,45.466267 165.969849,44.067123 
	C167.328720,39.695213 171.048248,40.761700 173.863403,41.257809 
	C175.137939,41.482410 175.837845,44.273495 177.065094,45.665112 
	C178.190277,46.940968 179.672989,47.901909 181.000290,48.999012 
	C182.327301,50.095867 184.608688,51.039944 184.808670,52.312355 
	C185.431534,56.275486 187.700562,57.059204 191.107758,57.045746 
	C193.723022,57.035408 197.679993,56.462086 198.695801,57.852253 
	C201.359100,61.497047 202.863434,65.941383 208.374329,66.119919 
	C208.857147,75.012207 215.516800,72.731689 220.800949,73.055832 
	C222.266464,73.145737 223.705887,73.660561 225.578644,73.990219 
	C226.000000,86.687561 226.000000,99.375122 226.000000,112.531342 
z"/>
<path fill="#0C89F0" opacity="1.000000" stroke="none" 
	d="
M226.000000,181.531342 
	C222.094818,180.684784 218.198898,179.340866 214.277679,178.075378 
	C213.348679,177.775574 212.016052,178.083481 211.411987,177.524841 
	C207.680969,174.074280 202.977768,171.028915 200.793823,166.732529 
	C198.594391,162.405655 195.513962,161.463226 191.845673,161.141449 
	C187.987183,160.802994 184.640625,160.572311 183.274490,156.077927 
	C182.985611,155.127594 181.209747,154.652557 180.157104,153.904907 
	C178.981201,153.069733 177.082870,152.355316 176.825928,151.273270 
	C175.506546,145.716858 171.106277,145.439041 166.824097,145.035080 
	C160.775574,144.464478 160.114227,143.875580 160.333435,137.276733 
	C161.954697,136.229965 163.242065,135.748367 164.529434,135.266769 
	C164.497986,134.841934 164.466537,134.417099 164.435089,133.992264 
	C157.625916,133.992264 150.816757,133.992264 144.005264,133.688782 
	C144.002182,132.980682 144.001419,132.576035 144.000656,132.171387 
	C148.487762,132.113083 152.977615,132.131927 157.461105,131.972092 
	C161.057602,131.843857 163.117584,130.426682 163.114990,126.223587 
	C163.113037,123.069427 164.329666,119.914520 165.320709,116.112022 
	C165.765518,114.307777 165.893372,113.151451 166.021240,111.995125 
	C168.511902,112.692314 171.048630,113.263672 173.470016,114.150108 
	C174.407425,114.493271 175.684921,115.477440 175.783310,116.293129 
	C176.543335,122.593597 181.130127,122.616219 185.449799,121.795631 
	C189.785248,120.972054 192.147385,122.039749 192.920013,126.380180 
	C192.978180,126.706932 192.895950,127.171631 193.086151,127.345261 
	C196.995605,130.913864 200.945969,134.437592 204.861832,137.999237 
	C205.954086,138.992691 207.602432,139.927872 207.890472,141.150223 
	C208.809753,145.051651 211.283783,145.991302 214.842056,146.051636 
	C218.289185,146.110092 221.729050,146.596252 225.586060,146.947296 
	C226.000000,158.354233 226.000000,169.708450 226.000000,181.531342 
z"/>
<path fill="#097DEB" opacity="1.000000" stroke="none" 
	d="
M143.999390,167.001831 
	C149.205231,167.702774 154.411514,168.400452 159.615845,169.112503 
	C159.936447,169.156372 160.458710,169.240601 160.522018,169.428833 
	C161.992905,173.802765 167.608475,174.964035 168.946182,178.140579 
	C171.396698,183.959625 175.781906,184.298096 180.365341,184.873734 
	C183.259979,185.237244 184.713104,185.815643 185.265274,189.072586 
	C185.524277,190.600266 188.273132,191.722229 189.920578,192.993134 
	C191.311615,194.066208 192.790192,195.030212 194.141098,196.149750 
	C195.596008,197.355484 196.910278,198.730255 198.356903,199.946838 
	C199.341309,200.774673 201.140625,201.278015 201.387939,202.233749 
	C203.061249,208.700348 208.730820,208.011307 213.281937,208.864990 
	C215.792953,209.335999 217.100372,209.945770 218.521744,212.304077 
	C219.658356,214.189926 222.886551,214.815155 225.593216,215.999939 
	C226.000000,219.298203 226.000000,222.596420 226.000000,226.000000 
	C215.645966,226.000000 205.291641,226.000000 194.426666,225.623138 
	C192.976212,220.564102 191.070831,216.789749 185.447174,217.038712 
	C181.017960,217.234802 177.003845,217.107376 176.443863,211.264328 
	C176.382996,210.629242 175.409393,209.649292 174.770020,209.572617 
	C170.820358,209.098969 169.781784,205.774536 167.488312,203.443115 
	C164.604858,200.511917 160.531296,198.683044 158.644150,194.537003 
	C158.474121,194.163437 157.447632,194.091019 156.805344,194.035431 
	C152.539581,193.666428 148.270096,193.340164 144.001099,192.531342 
	C144.000046,183.709076 143.999725,175.355453 143.999390,167.001831 
z"/>
<path fill="#0573E6" opacity="1.000000" stroke="none" 
	d="
M1.000000,135.466858 
	C6.033326,135.737335 11.091425,136.347015 16.079966,137.315125 
	C17.131668,137.519226 17.906750,139.060501 18.847864,139.944611 
	C20.075598,141.097992 21.319071,142.236969 22.598288,143.332489 
	C23.704361,144.279739 25.575005,144.961685 25.891069,146.098984 
	C27.558496,152.099014 32.800484,151.815475 37.232197,152.974045 
	C38.178856,153.221527 39.518372,152.790283 40.142178,153.311584 
	C43.538235,156.149658 48.005135,158.601151 49.757168,162.297760 
	C52.258808,167.575974 56.552528,168.121704 60.853119,168.843582 
	C63.900005,169.354996 66.344940,169.621811 67.249367,173.086090 
	C67.446426,173.840927 68.622963,174.345810 69.363579,174.947113 
	C69.481384,175.042755 69.730560,174.987762 69.833336,175.089203 
	C74.190804,179.390060 78.526604,183.712952 82.895973,188.001633 
	C83.964355,189.050308 85.025879,190.663132 86.282356,190.874069 
	C95.609795,192.440002 95.624992,192.349457 101.041794,198.941376 
	C102.586090,197.114746 104.092979,195.332367 106.049301,193.274231 
	C106.498734,192.998505 106.996658,192.996948 106.998596,192.998291 
	C107.000534,192.999619 107.010208,192.998169 107.007538,193.466217 
	C107.003242,199.622635 107.001617,205.311020 106.620422,211.005539 
	C104.249542,211.859253 98.852257,211.460419 96.322205,210.296509 
	C96.027206,210.160797 95.688515,210.063538 95.366287,210.051712 
	C85.620277,209.693741 81.710999,200.858429 75.000412,196.092209 
	C73.257347,194.854187 71.334084,193.557129 69.308838,193.092529 
	C64.735504,192.043427 60.908726,190.811234 57.889660,186.400726 
	C54.874821,181.996353 49.951321,178.944061 46.163223,175.011337 
	C41.869267,170.553452 35.952442,169.546387 30.743244,167.026932 
	C29.463955,166.408203 28.122261,165.536392 27.297665,164.420120 
	C20.744286,155.548843 11.836975,151.413681 1.000000,151.000000 
	C1.000000,145.977905 1.000000,140.955811 1.000000,135.466858 
z"/>
<path fill="#0370E6" opacity="1.000000" stroke="none" 
	d="
M1.000000,151.458069 
	C11.836975,151.413681 20.744286,155.548843 27.297665,164.420120 
	C28.122261,165.536392 29.463955,166.408203 30.743244,167.026932 
	C35.952442,169.546387 41.869267,170.553452 46.163223,175.011337 
	C49.951321,178.944061 54.874821,181.996353 57.889660,186.400726 
	C60.908726,190.811234 64.735504,192.043427 69.308838,193.092529 
	C71.334084,193.557129 73.257347,194.854187 75.000412,196.092209 
	C81.710999,200.858429 85.620277,209.693741 95.366287,210.051712 
	C95.688515,210.063538 96.027206,210.160797 96.322205,210.296509 
	C98.852257,211.460419 104.249542,211.859253 106.621147,211.471725 
	C107.000969,216.621170 107.000481,221.310593 107.000000,226.000000 
	C101.311958,226.000000 95.623917,226.000000 89.467941,226.000000 
	C89.092384,221.740311 88.837700,217.910767 83.006195,217.666840 
	C81.967552,217.623383 80.233078,215.417496 80.179039,214.152100 
	C80.015976,210.333389 77.880112,209.941956 74.858788,209.961563 
	C70.175613,209.991989 66.569191,209.264023 63.533722,204.217484 
	C61.488369,200.817032 55.884502,199.747910 54.185474,194.562469 
	C53.758945,193.260696 48.584927,193.816559 45.811115,192.875198 
	C43.971813,192.250977 42.504555,190.502411 40.899609,189.221024 
	C36.274567,185.528442 33.093639,180.043854 27.222883,177.935028 
	C25.394768,177.278351 23.328829,177.286057 21.373095,176.981064 
	C20.719765,176.879181 19.662825,176.958679 19.481274,176.602798 
	C17.123009,171.980179 11.978469,169.986938 9.240647,166.144379 
	C7.065569,163.091614 5.347458,161.580856 1.417280,162.000000 
	C1.000000,158.638718 1.000000,155.277420 1.000000,151.458069 
z"/>
<path fill="#14A1F9" opacity="1.000000" stroke="none" 
	d="
M226.000000,41.531364 
	C222.877747,42.000000 219.755508,42.000000 216.474594,42.000000 
	C216.260208,40.308067 216.182114,39.175499 215.964783,38.070316 
	C215.223450,34.300457 212.941650,33.192825 209.387314,34.832424 
	C204.613312,37.034653 201.724457,36.325958 200.427826,31.159807 
	C199.285309,26.607714 196.708344,25.771908 192.640320,25.832348 
	C192.411758,24.656391 192.179031,23.577618 191.994904,22.490604 
	C191.292358,18.342686 189.042175,17.115389 185.318649,18.864412 
	C180.618439,21.072199 178.810867,20.409861 176.400940,15.596758 
	C173.747375,10.297031 173.747391,10.297027 168.000000,9.496840 
	C168.000000,7.059466 168.000000,4.482996 168.000000,1.453263 
	C179.020889,1.000000 190.041794,1.000000 201.531372,1.404393 
	C201.740524,4.915768 202.579376,7.117209 205.943787,8.246522 
	C207.463409,8.756618 208.511902,10.615252 209.826752,11.803868 
	C211.642410,13.445223 213.265930,15.768456 215.407700,16.471392 
	C218.746094,17.567070 222.450623,17.547163 226.000000,18.000000 
	C226.000000,25.687576 226.000000,33.375153 226.000000,41.531364 
z"/>
<path fill="#0779E9" opacity="1.000000" stroke="none" 
	d="
M144.001831,193.000000 
	C148.270096,193.340164 152.539581,193.666428 156.805344,194.035431 
	C157.447632,194.091019 158.474121,194.163437 158.644150,194.537003 
	C160.531296,198.683044 164.604858,200.511917 167.488312,203.443115 
	C169.781784,205.774536 170.820358,209.098969 174.770020,209.572617 
	C175.409393,209.649292 176.382996,210.629242 176.443863,211.264328 
	C177.003845,217.107376 181.017960,217.234802 185.447174,217.038712 
	C191.070831,216.789749 192.976212,220.564102 193.958008,225.623138 
	C177.645767,226.000000 161.291550,226.000000 144.468475,225.531342 
	C144.000366,214.375122 144.001099,203.687561 144.001831,193.000000 
z"/>
<path fill="#0066E2" opacity="1.000000" stroke="none" 
	d="
M1.000000,195.468658 
	C3.880996,194.872955 6.679062,194.703262 7.478750,198.588837 
	C7.679948,199.566437 8.893267,200.362656 9.701276,201.183334 
	C12.014043,203.532471 14.091742,206.242905 16.770819,208.061508 
	C19.019434,209.587921 21.921141,210.486908 24.647303,210.884262 
	C27.575066,211.310989 30.632660,210.533447 31.568607,214.707870 
	C31.847813,215.953171 33.318333,217.501648 34.548157,217.857895 
	C38.424168,218.980759 39.160351,222.042297 39.957146,225.621277 
	C27.081800,226.000000 14.163601,226.000000 1.000000,226.000000 
	C1.000000,215.980438 1.000000,205.958878 1.000000,195.468658 
z"/>
<path fill="#15A5FC" opacity="1.000000" stroke="none" 
	d="
M226.000000,17.529547 
	C222.450623,17.547163 218.746094,17.567070 215.407700,16.471392 
	C213.265930,15.768456 211.642410,13.445223 209.826752,11.803868 
	C208.511902,10.615252 207.463409,8.756618 205.943787,8.246522 
	C202.579376,7.117209 201.740524,4.915768 202.000031,1.404393 
	C209.912903,1.000000 217.825821,1.000000 226.000000,1.000000 
	C226.000000,6.350224 226.000000,11.704659 226.000000,17.529547 
z"/>
<path fill="#0978ED" opacity="1.000000" stroke="none" 
	d="
M142.000000,226.000000 
	C141.555664,226.000000 141.111328,226.000000 140.333496,225.531342 
	C140.003448,206.372269 140.006912,187.681870 140.340958,168.993073 
	C141.112534,168.996674 141.553513,168.998642 141.996780,169.469238 
	C141.999374,188.625229 141.999680,207.312622 142.000000,226.000000 
z"/>
<path fill="#086DE9" opacity="1.000000" stroke="none" 
	d="
M138.250000,226.000000 
	C137.954727,204.641495 137.909439,183.282974 138.192902,161.463547 
	C138.521667,161.002625 138.995728,161.004883 138.996063,161.473236 
	C138.997604,183.294388 138.998810,204.647186 139.000000,226.000000 
	C139.000000,226.000000 138.500000,226.000000 138.250000,226.000000 
z"/>
<path fill="#007EE3" opacity="1.000000" stroke="none" 
	d="
M139.250000,226.000000 
	C138.998810,204.647186 138.997604,183.294388 139.249115,161.472794 
	C139.670486,161.004898 139.839157,161.005798 140.006653,161.449936 
	C140.007126,164.259262 140.008743,166.625351 140.010376,168.991455 
	C140.006912,187.681870 140.003448,206.372269 140.000000,225.531342 
	C140.000000,226.000000 139.500000,226.000000 139.250000,226.000000 
z"/>
<path fill="#067EDC" opacity="1.000000" stroke="none" 
	d="
M142.250000,226.000000 
	C141.999680,207.312622 141.999374,188.625229 141.998672,169.025009 
	C142.002060,165.741653 142.005844,163.371124 142.254639,161.001160 
	C142.499634,161.001724 142.989624,161.003662 142.989624,161.003662 
	C142.989624,161.003662 142.998245,161.000610 142.999023,161.470612 
	C142.999863,183.293747 142.999939,204.646866 143.000000,226.000000 
	C143.000000,226.000000 142.500000,226.000000 142.250000,226.000000 
z"/>
<path fill="#0F75F1" opacity="1.000000" stroke="none" 
	d="
M143.250000,226.000000 
	C142.999939,204.646866 142.999863,183.293747 142.999908,161.472443 
	C143.332886,162.733887 143.665756,164.463501 143.999023,166.597473 
	C143.999725,175.355453 144.000046,183.709076 144.001099,192.531342 
	C144.001099,203.687561 144.000366,214.375122 143.999817,225.531342 
	C144.000000,226.000000 143.500000,226.000000 143.250000,226.000000 
z"/>
<path fill="#0369F1" opacity="1.000000" stroke="none" 
	d="
M107.250000,226.000000 
	C107.000481,221.310593 107.000969,216.621170 107.000732,211.465576 
	C107.001617,205.311020 107.003242,199.622635 107.218597,193.467407 
	C107.432335,193.000534 107.854706,193.004272 107.854706,193.004272 
	C107.923256,203.362122 107.991806,213.719955 108.047928,224.784576 
	C108.023674,225.660889 108.011833,225.830444 108.000000,226.000000 
	C108.000000,226.000000 107.500000,226.000000 107.250000,226.000000 
z"/>
<path fill="#EDFBFD" opacity="1.000000" stroke="none" 
	d="
M108.250000,226.000000 
	C108.011833,225.830444 108.023674,225.660889 108.115524,225.249237 
	C108.473015,225.132095 108.687607,225.326447 108.919662,225.795120 
	C109.000000,226.000000 108.500000,226.000000 108.250000,226.000000 
z"/>
<path fill="#0D80E8" opacity="1.000000" stroke="none" 
	d="
M140.007812,161.006714 
	C139.839157,161.005798 139.670486,161.004898 139.248779,161.004456 
	C138.995728,161.004883 138.521667,161.002625 138.284637,161.002731 
	C137.983322,153.311310 137.919006,145.619766 138.248444,137.316437 
	C138.767944,135.493973 138.893692,134.283310 139.019440,133.072662 
	C140.433044,132.726593 141.846634,132.380524 143.630432,132.102936 
	C144.001419,132.576035 144.002182,132.980682 144.000580,133.693970 
	C143.998230,134.002625 143.991577,134.012985 143.737946,134.179291 
	C142.987381,135.232498 142.490479,136.119415 141.696533,137.299225 
	C141.265884,141.369934 141.205276,145.152130 140.978775,148.924393 
	C140.736664,152.956726 140.338089,156.979675 140.007812,161.006714 
z"/>
<path fill="#FBFBF8" opacity="1.000000" stroke="none" 
	d="
M108.160904,78.995468 
	C108.876732,79.830658 110.182716,80.648354 110.208092,81.504021 
	C110.329803,85.608536 110.042969,89.723351 110.045418,93.834427 
	C110.046066,94.921524 110.201752,96.439209 110.900406,97.018654 
	C113.542007,99.209488 114.083763,102.246849 112.065186,104.228035 
	C111.118019,105.157654 107.541664,103.408455 105.345810,102.399185 
	C106.056351,101.266502 106.577896,100.607895 107.075882,99.739365 
	C107.052330,99.529442 107.063766,99.107109 107.429031,98.865021 
	C107.916504,92.080444 108.038704,85.537956 108.160904,78.995468 
z"/>
<path fill="#FBFCF7" opacity="1.000000" stroke="none" 
	d="
M129.974106,45.330105 
	C131.318665,44.946873 132.506531,44.840042 134.333527,44.371674 
	C141.984207,44.062134 148.995758,44.114143 156.007309,44.166149 
	C155.882141,45.275105 155.756973,46.384060 155.631561,47.495090 
	C149.240189,47.160980 143.124329,46.766251 137.002121,46.554432 
	C134.149551,46.455734 131.284744,46.711632 128.228912,46.510887 
	C128.627365,46.012154 129.222382,45.809334 129.974106,45.330105 
z"/>
<path fill="#0980F1" opacity="1.000000" stroke="none" 
	d="
M106.005432,135.009216 
	C100.853043,135.005997 95.693764,135.143250 90.553612,134.890823 
	C89.411835,134.834747 88.337540,133.404922 87.562759,132.305420 
	C90.918983,131.719131 93.944626,131.435043 96.970261,131.150970 
	C99.033348,131.101700 101.096443,131.052444 103.788116,131.316406 
	C105.555481,132.416656 106.694260,133.203705 107.889862,134.238953 
	C107.911797,134.653259 107.876892,134.819366 107.535843,134.988922 
	C106.821617,134.997971 106.413528,135.003601 106.005432,135.009216 
z"/>
<path fill="#0391F5" opacity="1.000000" stroke="none" 
	d="
M156.341202,44.099232 
	C148.995758,44.114143 141.984207,44.062134 134.509277,44.057205 
	C133.380981,43.515465 132.716064,42.926651 131.667847,41.998390 
	C141.441177,41.998390 150.754059,41.998390 160.536224,41.994820 
	C161.957687,42.383648 162.909882,42.776054 163.501587,43.563736 
	C161.435501,44.027420 159.729919,44.095829 158.024323,44.164234 
	C157.574585,44.120262 157.124832,44.076286 156.341202,44.099232 
z"/>
<path fill="#0075F2" opacity="1.000000" stroke="none" 
	d="
M107.929977,192.540558 
	C107.854706,193.004272 107.432335,193.000534 107.221268,192.999359 
	C107.010208,192.998169 107.000534,192.999619 107.000397,192.529968 
	C106.999969,175.139359 106.975304,158.218307 107.036018,141.297562 
	C107.042290,139.550110 107.557312,137.804520 107.914917,136.298889 
	C108.054741,136.697128 108.115929,136.854538 108.177124,137.011963 
	C108.119835,155.366928 108.062546,173.721878 107.929977,192.540558 
z"/>
<path fill="#DBE9F6" opacity="1.000000" stroke="none" 
	d="
M138.978195,102.257980 
	C140.056763,101.682556 141.119919,101.350479 142.629501,101.268303 
	C143.376678,101.624939 143.677414,101.731674 143.978149,101.838409 
	C150.994125,101.578308 158.010086,101.318199 165.484253,101.041801 
	C165.942429,101.025505 165.877625,101.142349 165.877625,101.142349 
	C165.873535,101.563316 165.869431,101.984291 165.515198,102.716301 
	C164.770386,103.029205 164.375717,103.031067 163.981049,103.032928 
	C157.714859,103.354774 151.451141,103.760178 145.180908,103.945114 
	C143.410645,103.997337 141.621368,103.404327 139.420105,103.053375 
	C138.999405,102.999512 138.985504,102.988472 138.985504,102.988472 
	C138.985504,102.988472 138.962769,102.501335 138.978195,102.257980 
z"/>
<path fill="#0183F7" opacity="1.000000" stroke="none" 
	d="
M108.091866,78.551590 
	C108.038704,85.537956 107.916504,92.080444 107.261780,98.602440 
	C106.154167,98.388695 105.579063,98.195442 105.003967,98.002190 
	C105.003967,98.002190 105.000366,97.999886 105.003830,97.997360 
	C108.851463,92.777863 106.761108,87.044640 106.391220,81.481117 
	C106.214951,78.829933 105.753876,76.197670 105.710045,73.278656 
	C106.537521,72.115959 107.076767,71.231461 107.898331,70.198540 
	C108.128052,72.735985 108.075439,75.421852 108.091866,78.551590 
z"/>
<path fill="#168AE7" opacity="1.000000" stroke="none" 
	d="
M138.909332,79.435486 
	C142.831894,78.873566 142.937836,81.677689 142.978058,84.394440 
	C143.045822,88.972824 142.996628,93.552933 142.996628,99.639816 
	C142.141174,97.914688 141.294952,97.010414 141.327454,96.138901 
	C141.494324,91.664391 141.887177,87.198303 142.201080,82.729279 
	C141.747528,82.668121 141.293991,82.606972 140.840439,82.545815 
	C140.192017,84.633820 139.543594,86.721817 138.529694,88.904648 
	C138.409760,85.948959 138.655304,82.898445 138.909332,79.435486 
z"/>
<path fill="#EEFAFB" opacity="1.000000" stroke="none" 
	d="
M166.563919,66.266190 
	C166.852951,66.190826 166.912766,66.353897 167.054108,66.764557 
	C166.964828,72.014343 162.486237,69.650108 160.155365,70.801147 
	C158.354462,71.690475 155.701859,70.855110 153.198853,70.435196 
	C156.570343,69.524414 160.191071,69.064194 163.757858,68.338791 
	C164.702103,68.146751 165.480286,67.138229 166.563919,66.266190 
z"/>
<path fill="#F6FBF6" opacity="1.000000" stroke="none" 
	d="
M163.920425,103.394119 
	C164.375717,103.031067 164.770386,103.029205 165.460876,103.027306 
	C165.826889,103.191605 165.897079,103.355942 165.984192,104.154877 
	C166.008438,105.565155 166.015808,106.340828 165.790466,107.408386 
	C165.309387,109.468445 165.061005,111.236610 164.812637,113.004784 
	C160.480865,110.335144 161.537491,107.110413 163.920425,103.394119 
z"/>
<path fill="#0C89F0" opacity="1.000000" stroke="none" 
	d="
M109.472984,67.066696 
	C109.054420,64.350464 109.025032,61.570862 108.997818,58.395630 
	C109.000000,58.000000 109.004654,57.993954 109.004654,57.993954 
	C109.536148,58.724632 110.067635,59.455307 110.398682,59.910416 
	C111.421043,59.028435 112.449356,58.141323 113.790443,57.145275 
	C112.689537,60.358669 111.275848,63.681000 109.472984,67.066696 
z"/>
<path fill="#F2FEFE" opacity="1.000000" stroke="none" 
	d="
M85.000229,110.249596 
	C85.000282,108.231361 85.000282,106.659523 85.000282,105.087685 
	C85.575485,105.112816 86.150688,105.137947 86.725891,105.163078 
	C86.469635,110.111382 86.213379,115.059692 85.957130,120.008003 
	C85.638145,119.999809 85.319168,119.991623 85.000183,119.983429 
	C85.000183,116.887619 85.000183,113.791801 85.000229,110.249596 
z"/>
<path fill="#FBFCF7" opacity="1.000000" stroke="none" 
	d="
M158.263748,44.401657 
	C159.729919,44.095829 161.435501,44.027420 163.563171,43.892685 
	C164.425156,43.885254 164.865036,43.944157 165.637390,44.035088 
	C166.290878,45.466267 166.611893,46.865410 166.875015,48.632309 
	C164.045807,47.546406 161.274490,46.092743 158.263748,44.401657 
z"/>
<path fill="#057AF4" opacity="1.000000" stroke="none" 
	d="
M107.099442,99.949295 
	C106.577896,100.607895 106.056351,101.266502 105.263130,102.044487 
	C99.956512,102.105209 94.921585,102.046562 89.433998,101.710297 
	C88.981346,101.432686 88.987915,101.006332 88.987915,101.006332 
	C94.132095,100.867813 99.276268,100.729294 105.063126,100.291946 
	C106.170349,99.978508 106.634895,99.963898 107.099442,99.949295 
z"/>
<path fill="#EDFBFD" opacity="1.000000" stroke="none" 
	d="
M108.525627,136.956818 
	C108.115929,136.854538 108.054741,136.697128 107.974983,136.030945 
	C107.918274,135.343292 107.880127,135.164398 107.841980,134.985489 
	C107.876892,134.819366 107.911797,134.653259 107.952988,133.888794 
	C107.637398,132.481064 107.315506,131.671692 106.993607,130.862335 
	C108.219894,131.423538 110.474922,131.989212 110.472511,132.545105 
	C110.466209,133.999573 109.473572,135.449768 108.525627,136.956818 
z"/>
<path fill="#0273E2" opacity="1.000000" stroke="none" 
	d="
M96.512344,131.086029 
	C93.944626,131.435043 90.918983,131.719131 87.449867,132.009583 
	C86.257042,132.013107 85.507690,132.010254 84.379410,132.003906 
	C84.000465,132.000412 83.991859,131.994751 83.991859,131.994751 
	C83.991859,131.994751 83.981773,131.562256 83.968620,131.346344 
	C87.988457,131.093979 92.021446,131.057526 96.512344,131.086029 
z"/>
<path fill="#CDE3FA" opacity="1.000000" stroke="none" 
	d="
M84.070251,130.372437 
	C83.488251,130.350571 82.354675,129.881744 82.368446,129.449478 
	C82.449272,126.912422 82.797974,124.383904 83.153519,121.423737 
	C83.516708,123.977440 83.782722,126.959915 84.070251,130.372437 
z"/>
<path fill="#BDDAFD" opacity="1.000000" stroke="none" 
	d="
M138.831894,132.805710 
	C138.893692,134.283310 138.767944,135.493973 138.304352,136.850281 
	C138.192459,135.510223 138.418396,134.024490 138.831894,132.805710 
z"/>
<path fill="#0A82E0" opacity="1.000000" stroke="none" 
	d="
M164.889862,113.369766 
	C165.061005,111.236610 165.309387,109.468445 165.778732,107.795609 
	C166.002930,108.926125 166.006149,109.961319 166.009369,110.996506 
	C166.009384,110.996506 166.011581,111.495911 166.016418,111.745514 
	C165.893372,113.151451 165.765518,114.307777 165.393570,115.712044 
	C165.088684,115.218239 165.027878,114.476501 164.889862,113.369766 
z"/>
<path fill="#0273E2" opacity="1.000000" stroke="none" 
	d="
M106.625748,130.922699 
	C107.315506,131.671692 107.637398,132.481064 107.896164,133.640594 
	C106.694260,133.203705 105.555481,132.416656 104.224945,131.390320 
	C104.774750,131.095016 105.516319,131.039032 106.625748,130.922699 
z"/>
<path fill="#0C89F0" opacity="1.000000" stroke="none" 
	d="
M108.941269,68.679855 
	C108.289665,68.420914 107.704285,67.850685 107.118904,67.280457 
	C107.602905,67.145775 108.086914,67.011093 108.842728,66.988457 
	C109.078865,67.523193 109.043182,67.945892 108.941269,68.679855 
z"/>
<path fill="#136FE0" opacity="1.000000" stroke="none" 
	d="
M88.631149,101.003662 
	C88.987915,101.006332 88.981346,101.432686 88.968300,101.645493 
	C88.955254,101.858299 89.081879,101.981979 88.683701,102.000237 
	C87.519073,102.092583 86.752632,102.166664 85.986191,102.240746 
	C85.986191,102.240746 85.510361,102.106117 85.283676,102.008438 
	C86.129463,101.607506 87.201927,101.304245 88.631149,101.003662 
z"/>
<path fill="#CEEFFF" opacity="1.000000" stroke="none" 
	d="
M86.196381,102.449020 
	C86.752632,102.166664 87.519073,102.092583 88.666687,102.087082 
	C88.167427,102.322884 87.286995,102.490089 86.196381,102.449020 
z"/>
<path fill="#097CEB" opacity="1.000000" stroke="none" 
	d="
M83.028397,105.750740 
	C82.644653,105.488564 82.352608,104.986687 82.298660,104.227242 
	C82.536766,103.969681 83.021011,103.963264 83.021011,103.963264 
	C83.021011,103.963264 83.004517,104.005379 83.045395,104.261253 
	C83.147957,104.684929 83.209648,104.852730 83.271339,105.020531 
	C83.220917,105.184029 83.170502,105.347527 83.028397,105.750740 
z"/>
<path fill="#EDFBFD" opacity="1.000000" stroke="none" 
	d="
M111.449356,130.534317 
	C111.416100,130.478546 111.482620,130.590088 111.449356,130.534317 
z"/>
<path fill="#F2FEFE" opacity="1.000000" stroke="none" 
	d="
M85.532700,128.549835 
	C85.476814,128.583344 85.588577,128.516327 85.532700,128.549835 
z"/>
<path fill="#CDE3FA" opacity="1.000000" stroke="none" 
	d="
M83.417671,104.896118 
	C83.209648,104.852730 83.147957,104.684929 83.064987,104.249847 
	C83.217133,104.245613 83.390572,104.508659 83.417671,104.896118 
z"/>
<path fill="#DBE9F6" opacity="1.000000" stroke="none" 
	d="
M139.004623,103.006042 
	C138.906235,103.039345 138.802628,103.066124 138.842255,103.040688 
	C138.985504,102.988472 138.999405,102.999512 139.004623,103.006042 
z"/>
<path fill="#CDE3FA" opacity="1.000000" stroke="none" 
	d="
M83.032089,103.729820 
	C83.021011,103.963264 82.536766,103.969681 82.299774,103.921173 
	C82.047852,103.507172 82.205208,103.245125 82.775070,103.058151 
	C83.015289,103.029793 83.043175,103.496376 83.032089,103.729820 
z"/>
<path fill="#1475E0" opacity="1.000000" stroke="none" 
	d="
M107.535843,134.988922 
	C107.880127,135.164398 107.918274,135.343292 107.896347,135.790131 
	C107.557312,137.804520 107.042290,139.550110 107.036018,141.297562 
	C106.975304,158.218307 106.999969,175.139359 106.998459,192.528641 
	C106.996658,192.996948 106.498734,192.998505 106.249786,192.997223 
	C106.001724,184.976562 106.002617,176.957169 106.003387,168.469193 
	C106.003349,157.315216 106.003418,146.629837 106.004456,135.476837 
	C106.413528,135.003601 106.821617,134.997971 107.535843,134.988922 
z"/>
<path fill="#0273E2" opacity="1.000000" stroke="none" 
	d="
M84.004837,132.004776 
	C83.958916,132.735260 83.908638,133.461395 83.858353,134.187515 
	C83.652122,134.163483 83.445892,134.139435 83.239655,134.115387 
	C83.333748,133.522278 83.427841,132.929153 83.756897,132.165390 
	C83.991859,131.994751 84.000465,132.000412 84.004837,132.004776 
z"/>
<path fill="#0F88E0" opacity="1.000000" stroke="none" 
	d="
M107.075882,99.739365 
	C106.634895,99.963898 106.170349,99.978508 105.357330,99.995636 
	C105.006470,99.554604 105.004082,99.111046 105.002838,98.334839 
	C105.579063,98.195442 106.154167,98.388695 106.896515,98.844528 
	C107.063766,99.107109 107.052330,99.529442 107.075882,99.739365 
z"/>
<path fill="#0988EB" opacity="1.000000" stroke="none" 
	d="
M166.325409,110.952255 
	C166.006149,109.961319 166.002930,108.926125 166.011429,107.503723 
	C166.015808,106.340828 166.008438,105.565155 166.071274,104.408386 
	C166.308136,106.320869 166.474792,108.614433 166.325409,110.952255 
z"/>
<path fill="#0988EB" opacity="1.000000" stroke="none" 
	d="
M165.912567,101.078468 
	C165.990387,99.951172 166.098068,98.770912 166.205750,97.590652 
	C166.778595,97.702248 167.351440,97.813850 167.924286,97.925446 
	C167.414032,98.876740 166.903793,99.828026 166.135590,100.960831 
	C165.877625,101.142349 165.942429,101.025505 165.912567,101.078468 
z"/>
<path fill="#168AE7" opacity="1.000000" stroke="none" 
	d="
M143.844879,101.643967 
	C143.677414,101.731674 143.376678,101.624939 142.975922,101.281288 
	C143.201553,101.082321 143.480133,101.217377 143.844879,101.643967 
z"/>
<path fill="#0C89F0" opacity="1.000000" stroke="none" 
	d="
M106.138794,64.946121 
	C106.092537,64.964081 106.185066,64.928162 106.138794,64.946121 
z"/>
<path fill="#0C89F0" opacity="1.000000" stroke="none" 
	d="
M108.996948,58.002377 
	C108.873718,57.860863 108.753532,57.716972 108.633347,57.573082 
	C108.719696,57.621727 108.806053,57.670376 108.948532,57.856491 
	C109.004654,57.993954 109.000000,58.000000 108.996948,58.002377 
z"/>
<path fill="#0D80E8" opacity="1.000000" stroke="none" 
	d="
M144.002899,133.997437 
	C150.816757,133.992264 157.625916,133.992264 164.435089,133.992264 
	C164.466537,134.417099 164.497986,134.841934 164.529434,135.266769 
	C163.242065,135.748367 161.954697,136.229965 160.333054,136.856384 
	C155.308975,137.000473 150.619156,136.999710 145.338806,136.704254 
	C144.496033,135.610703 144.243805,134.811844 143.991577,134.012985 
	C143.991577,134.012985 143.998230,134.002625 144.002899,133.997437 
z"/>
<path fill="#1680E1" opacity="1.000000" stroke="none" 
	d="
M143.737946,134.179291 
	C144.243805,134.811844 144.496033,135.610703 144.872498,136.703445 
	C144.329803,138.431320 143.136917,139.847305 143.087128,141.302429 
	C142.873245,147.550522 142.995514,153.810135 142.992462,160.534607 
	C142.989624,161.003662 142.499634,161.001724 142.250519,160.532471 
	C141.998795,152.377594 141.996170,144.691956 141.993561,137.006332 
	C142.490479,136.119415 142.987381,135.232498 143.737946,134.179291 
z"/>
<path fill="#0482F5" opacity="1.000000" stroke="none" 
	d="
M141.696533,137.299225 
	C141.996170,144.691956 141.998795,152.377594 142.005524,160.531921 
	C142.005844,163.371124 142.002060,165.741653 141.996399,168.556396 
	C141.553513,168.998642 141.112534,168.996674 140.340942,168.993073 
	C140.008743,166.625351 140.007126,164.259262 140.006668,161.449936 
	C140.338089,156.979675 140.736664,152.956726 140.978775,148.924393 
	C141.205276,145.152130 141.265884,141.369934 141.696533,137.299225 
z"/>
</svg>