<svg version="1.1" id="Layer_1" xmlns="http://www.w3.org/2000/svg" xmlns:xlink="http://www.w3.org/1999/xlink" x="0px" y="0px"
	 width="100%" viewBox="0 0 225 225" enable-background="new 0 0 225 225" xml:space="preserve">
<path fill="#FEFEFE" opacity="1.000000" stroke="none" 
	d="
M138.000000,226.000000 
	C92.000000,226.000000 46.500004,226.000000 1.000006,226.000000 
	C1.000004,151.000000 1.000004,76.000015 1.000002,1.000016 
	C75.999992,1.000011 150.999985,1.000011 225.999969,1.000005 
	C225.999985,75.999985 225.999985,150.999969 226.000000,225.999969 
	C196.833328,226.000000 167.666672,226.000000 138.000000,226.000000 
M208.088516,94.896896 
	C177.053238,94.952614 146.017975,95.008339 114.398506,95.070709 
	C114.238220,95.389557 114.077934,95.708412 113.731956,96.946465 
	C113.795937,108.955101 113.859917,120.963745 113.924896,133.634262 
	C114.255196,133.890228 114.585495,134.146210 115.686363,134.699951 
	C133.340683,134.699951 150.995010,134.699951 168.915359,134.699951 
	C166.309540,148.456314 158.792435,157.994827 148.023056,165.990555 
	C133.437729,174.508926 118.015968,178.380783 101.195488,174.361115 
	C78.469131,168.930115 63.791336,154.574463 55.359245,132.417450 
	C51.373528,119.632256 51.620445,106.853004 55.835423,93.540710 
	C70.133209,52.718388 118.493530,38.705116 149.803619,63.847977 
	C151.040878,64.841530 154.635757,64.796654 155.741821,63.756805 
	C164.800049,55.240788 173.527908,46.373371 182.515900,37.454147 
	C181.365311,36.362801 180.686646,35.646996 179.935791,35.017246 
	C149.765244,9.713071 115.653587,4.185130 78.920769,16.567078 
	C52.924664,25.329884 33.695381,42.751965 21.112989,68.163353 
	C6.810361,98.674484 6.492837,129.104645 21.794096,160.128632 
	C26.585957,167.280228 30.628519,175.099075 36.299740,181.467606 
	C60.500984,208.644485 91.253815,219.615051 127.175156,215.813171 
	C147.641129,213.647064 166.067444,206.147095 181.885086,191.604355 
	C184.404861,188.950821 187.091614,186.435349 189.418167,183.622025 
	C209.222412,159.674149 214.395111,131.714386 211.627594,101.647636 
	C211.426132,99.458801 210.527771,97.334106 209.502060,94.983116 
	C209.502060,94.983116 209.015839,95.059967 208.088516,94.896896 
z"/>
<path fill="#EA4335" opacity="1.000000" stroke="none" 
	d="
M21.588293,67.639977 
	C33.695381,42.751965 52.924664,25.329884 78.920769,16.567078 
	C115.653587,4.185130 149.765244,9.713071 179.935791,35.017246 
	C180.686646,35.646996 181.365311,36.362801 182.515900,37.454147 
	C173.527908,46.373371 164.800049,55.240788 155.741821,63.756805 
	C154.635757,64.796654 151.040878,64.841530 149.803619,63.847977 
	C118.493530,38.705116 70.133209,52.718388 55.413910,93.518417 
	C43.857697,84.877411 32.722996,76.258690 21.588293,67.639977 
z"/>
<path fill="#34A853" opacity="1.000000" stroke="none" 
	d="
M181.344452,191.880508 
	C166.067444,206.147095 147.641129,213.647064 127.175156,215.813171 
	C91.253815,219.615051 60.500984,208.644485 36.299740,181.467606 
	C30.628519,175.099075 26.585957,167.280228 22.029152,159.570007 
	C33.356110,150.378769 44.448006,141.746155 55.539906,133.113556 
	C63.791336,154.574463 78.469131,168.930115 101.195488,174.361115 
	C118.015968,178.380783 133.437729,174.508926 148.600204,166.176514 
	C159.899719,174.868484 170.622086,183.374496 181.344452,191.880508 
z"/>
<path fill="#4385F4" opacity="1.000000" stroke="none" 
	d="
M181.614777,191.742432 
	C170.622086,183.374496 159.899719,174.868484 148.935944,166.099258 
	C158.792435,157.994827 166.309540,148.456314 168.915359,134.699951 
	C150.995010,134.699951 133.340683,134.699951 115.232819,134.252304 
	C114.494148,133.527222 114.209023,133.249802 113.923897,132.972382 
	C113.859917,120.963745 113.795937,108.955101 114.052017,96.386124 
	C114.667572,95.645576 114.871117,95.391670 114.982704,95.064056 
	C146.017975,95.008339 177.053238,94.952614 208.626129,95.133652 
	C209.426941,95.306801 209.690170,95.243195 209.953400,95.179596 
	C210.527771,97.334106 211.426132,99.458801 211.627594,101.647636 
	C214.395111,131.714386 209.222412,159.674149 189.418167,183.622025 
	C187.091614,186.435349 184.404861,188.950821 181.614777,191.742432 
z"/>
<path fill="#FBBC06" opacity="1.000000" stroke="none" 
	d="
M55.449577,132.765503 
	C44.448006,141.746155 33.356110,150.378769 21.952848,159.228302 
	C6.492837,129.104645 6.810361,98.674484 21.350641,67.901665 
	C32.722996,76.258690 43.857697,84.877411 55.202713,93.787430 
	C51.620445,106.853004 51.373528,119.632256 55.449577,132.765503 
z"/>
<path fill="#317DF3" opacity="1.000000" stroke="none" 
	d="
M114.690605,95.067383 
	C114.871117,95.391670 114.667572,95.645576 114.144859,95.926514 
	C114.077934,95.708412 114.238220,95.389557 114.690605,95.067383 
z"/>
<path fill="#317DF3" opacity="1.000000" stroke="none" 
	d="
M209.727722,95.081360 
	C209.690170,95.243195 209.426941,95.306801 209.089783,95.215179 
	C209.015839,95.059967 209.502060,94.983116 209.727722,95.081360 
z"/>
<path fill="#317DF3" opacity="1.000000" stroke="none" 
	d="
M113.924393,133.303314 
	C114.209023,133.249802 114.494148,133.527222 114.847534,134.103424 
	C114.585495,134.146210 114.255196,133.890228 113.924393,133.303314 
z"/>
</svg>